<?xml version="1.0" encoding="utf-8"?>
<!-- Generator: Adobe Illustrator 19.2.1, SVG Export Plug-In . SVG Version: 6.00 Build 0)  -->
<svg version="1.1" id="Layer_1" xmlns="http://www.w3.org/2000/svg" xmlns:xlink="http://www.w3.org/1999/xlink" x="0px" y="0px"
	 width="616.1px" height="177.8px" viewBox="0 0 616.1 177.8" style="enable-background:new 0 0 616.1 177.8;" xml:space="preserve"
	>
<style type="text/css">
	.st0{fill:#333366;}
	.st1{fill:none;}
	.st2{fill:#BBBDBF;}
	.st3{fill:#EF586A;}
	.st4{fill:#31B99B;}
	.st5{fill:#FFD64E;}
</style>
<g>
	<g>
		<polygon class="st0" points="16.8,177 0,177 70.4,-0.6 87.8,-0.6 		"/>
	</g>
</g>
<g>
	<g>
		<path class="st1" d="M137,139.4c-1.6-1.9-3.5-3.3-5.6-4.5c-2.2-1.1-4.6-1.7-7.2-1.7c-2.7,0-5.2,0.6-7.4,1.7
			c-2.2,1.2-4.1,2.7-5.6,4.6c-1.5,1.9-2.7,4.1-3.6,6.5c-0.8,2.4-1.3,4.8-1.3,7.3c0,2.6,0.4,5.2,1.3,7.6c0.9,2.4,2.1,4.6,3.7,6.5
			c1.6,1.9,3.5,3.4,5.6,4.5c2.2,1.1,4.6,1.7,7.3,1.7c2.7,0,5.2-0.6,7.4-1.8c2.2-1.2,4.1-2.7,5.6-4.6c1.5-1.9,2.7-4.1,3.6-6.5
			c0.8-2.4,1.3-4.8,1.3-7.3c0-2.6-0.4-5.2-1.3-7.6C139.8,143.4,138.6,141.2,137,139.4z"/>
		<path class="st2" d="M46.8,170c2,2.3,4.4,4.2,7.1,5.7c2.8,1.5,5.8,2.2,9.1,2.2c1.9,0,3.7-0.2,5.7-0.7c1.9-0.5,3.7-1.2,5.5-2.2
			c1.7-1,3.3-2.1,4.7-3.5c1.4-1.4,2.5-3,3.3-4.8l-3.9-2c-0.8,1.6-1.7,2.9-2.9,4c-1.1,1.1-2.4,2-3.7,2.8c-1.3,0.7-2.7,1.3-4.1,1.6
			c-1.4,0.3-2.8,0.5-4.2,0.5c-2.6,0-5-0.6-7.2-1.7c-2.2-1.1-4.1-2.6-5.7-4.5c-1.6-1.9-2.9-4-3.8-6.5c-0.8-2-1.2-4.1-1.3-6.3l-3,7.6
			C43.4,165.2,44.9,167.8,46.8,170z"/>
		<path class="st2" d="M55.5,135c2.2-1.2,4.8-1.8,7.7-1.8c1.3,0,2.7,0.1,4,0.4c1.4,0.3,2.7,0.8,3.9,1.5c1.3,0.7,2.4,1.6,3.5,2.7
			c1.1,1.1,2,2.4,2.8,4l3.8-2.3c-1.5-3.1-3.8-5.7-6.8-7.6c-3-1.9-6.7-2.9-11-2.9c-3.1,0-5.9,0.5-8.4,1.6l-2.6,6.5
			C53.3,136.3,54.4,135.6,55.5,135z"/>
		<path class="st2" d="M140.5,136.6c-2-2.3-4.3-4.2-7.1-5.6c-2.8-1.4-5.9-2.1-9.2-2.1c-3.2,0-6.2,0.7-9,2c-2.8,1.3-5.2,3.1-7.2,5.4
			c-2,2.3-3.6,4.9-4.8,7.8c-1.2,2.9-1.7,6-1.7,9.2c0,3.1,0.5,6.1,1.6,9c1.1,2.9,2.6,5.6,4.6,7.9c2,2.3,4.4,4.1,7.2,5.5
			c2.8,1.4,5.9,2.1,9.2,2.1c3.2,0,6.2-0.7,9-2c2.8-1.3,5.2-3.1,7.2-5.4c2-2.2,3.6-4.8,4.8-7.8c1.2-2.9,1.7-6,1.7-9.2
			c0-3-0.5-6-1.6-8.9C144,141.6,142.5,138.9,140.5,136.6z M140.7,160.7c-0.8,2.4-2,4.6-3.6,6.5c-1.5,1.9-3.4,3.4-5.6,4.6
			c-2.2,1.2-4.7,1.8-7.4,1.8c-2.7,0-5.1-0.6-7.3-1.7c-2.2-1.1-4.1-2.6-5.6-4.5c-1.6-1.9-2.8-4-3.7-6.5c-0.9-2.4-1.3-4.9-1.3-7.6
			c0-2.5,0.4-4.9,1.3-7.3c0.8-2.4,2-4.6,3.6-6.5c1.5-1.9,3.4-3.4,5.6-4.6c2.2-1.2,4.7-1.7,7.4-1.7c2.6,0,5,0.6,7.2,1.7
			c2.2,1.1,4.1,2.6,5.6,4.5c1.6,1.9,2.8,4,3.7,6.4c0.9,2.4,1.3,5,1.3,7.6C142,155.8,141.6,158.3,140.7,160.7z"/>
		<polygon class="st2" points="206.2,169.4 174.2,129.2 170.5,129.2 170.5,177.5 175.2,177.5 175.2,138.1 206.8,177.5 210.9,177.5 
			210.9,129.3 206.2,129.3 		"/>
		<polygon class="st2" points="273.3,169.4 241.4,129.2 237.7,129.2 237.7,177.5 242.4,177.5 242.4,138.1 273.9,177.5 278,177.5 
			278,129.3 273.3,129.3 		"/>
		<polygon class="st2" points="309.5,154.9 333.2,154.9 333.2,150.8 309.5,150.8 309.5,133.4 336.7,133.4 336.7,129.2 304.9,129.2 
			304.9,177.5 337.3,177.5 337.3,173.3 309.5,173.3 		"/>
		<path class="st2" d="M392.9,168.7c-1.1,1.1-2.4,2-3.7,2.8c-1.3,0.7-2.7,1.3-4.1,1.6c-1.4,0.3-2.8,0.5-4.2,0.5
			c-2.6,0-5-0.6-7.2-1.7c-2.2-1.1-4.1-2.6-5.7-4.5c-1.6-1.9-2.9-4-3.8-6.5c-0.9-2.4-1.4-5-1.4-7.7c0-2.4,0.4-4.9,1.2-7.2
			c0.8-2.4,1.9-4.5,3.4-6.4c1.5-1.9,3.4-3.4,5.6-4.6c2.2-1.2,4.8-1.8,7.7-1.8c1.3,0,2.7,0.1,4,0.4c1.4,0.3,2.7,0.8,3.9,1.5
			c1.3,0.7,2.4,1.6,3.5,2.7c1.1,1.1,2,2.4,2.8,4l3.8-2.3c-1.5-3.1-3.8-5.7-6.8-7.6c-3-1.9-6.7-2.9-11-2.9c-3.6,0-6.9,0.7-9.7,2.1
			c-2.9,1.4-5.3,3.3-7.2,5.5c-1.9,2.3-3.4,4.8-4.5,7.7c-1,2.9-1.5,5.8-1.5,8.7c0,3.1,0.6,6.1,1.7,9.1c1.1,3,2.7,5.6,4.7,8
			c2,2.3,4.4,4.2,7.1,5.7c2.8,1.5,5.8,2.2,9.1,2.2c1.9,0,3.7-0.2,5.7-0.7c1.9-0.5,3.7-1.2,5.5-2.2c1.7-1,3.3-2.1,4.7-3.5
			c1.4-1.4,2.5-3,3.3-4.8l-3.9-2C395,166.2,394,167.6,392.9,168.7z"/>
		<polygon class="st2" points="417.2,133.4 434.4,133.4 434.4,177.5 439.2,177.5 439.2,133.4 456.4,133.4 456.4,129.2 417.2,129.2 
					"/>
		<rect x="478.4" y="129.3" class="st2" width="4.7" height="48.2"/>
		<polygon class="st2" points="545.5,169.4 513.6,129.2 509.9,129.2 509.9,177.5 514.6,177.5 514.6,138.1 546.2,177.5 550.2,177.5 
			550.2,129.3 545.5,129.3 		"/>
		<path class="st2" d="M601.4,153.8v3.7H612v8.1c-2.3,2.8-4.7,4.8-7.2,6.1c-2.5,1.3-5.1,1.9-7.9,1.9c-2.6,0-5-0.5-7.2-1.6
			c-2.2-1.1-4.1-2.5-5.7-4.4c-1.6-1.8-2.9-4-3.8-6.4c-0.9-2.4-1.4-5-1.4-7.7c0-2.6,0.4-5.1,1.2-7.5c0.8-2.4,2-4.6,3.5-6.5
			c1.5-1.9,3.4-3.4,5.5-4.5c2.2-1.1,4.6-1.7,7.2-1.7c3.2,0,6.1,0.7,8.6,2.1c2.5,1.4,4.6,3.6,6.2,6.6l3.7-2.4c-0.8-1.5-1.7-3-2.9-4.2
			c-1.1-1.3-2.5-2.4-4-3.3c-1.5-0.9-3.2-1.7-5.2-2.2c-1.9-0.5-4.1-0.8-6.4-0.8c-3.2,0-6.2,0.7-8.9,2c-2.7,1.3-5.1,3.1-7.1,5.4
			c-2,2.2-3.5,4.8-4.6,7.8c-1.1,2.9-1.7,6-1.7,9.2c0,3.1,0.6,6.1,1.7,9c1.1,2.9,2.7,5.5,4.7,7.9c2,2.3,4.4,4.2,7.1,5.6
			c2.7,1.4,5.7,2.1,9,2.1c5.8,0,10.9-2.4,15.4-7.3v7h4.1v-23.7H601.4z"/>
	</g>
	<path class="st2" d="M145.1,60.2c-3.2-2.6-7.1-4.8-11.7-6.5c-4.6-1.7-9.7-3.4-15.4-4.9c-4.3-1.1-8.2-2.1-11.5-3.1
		c-3.3-1-6-2.1-8.2-3.3c-2.2-1.2-3.8-2.6-5-4.1c-0.3-0.5-0.6-1-0.9-1.5l-9.4,23.6c1.2,0.7,2.4,1.3,3.8,1.9c4.1,1.8,8.9,3.4,14.4,5
		c4.6,1.2,8.7,2.3,12.4,3.4c3.7,1.1,6.8,2.3,9.4,3.6c2.6,1.3,4.6,2.8,6,4.6c1.4,1.7,2.1,3.9,2.1,6.5c0,7.9-6.2,11.9-18.5,11.9
		c-4.4,0-8.8-0.5-13-1.6c-4.2-1.1-8.1-2.4-11.5-4c-3.5-1.6-6.5-3.1-9-4.7c-2.4-1.5-4.1-2.7-5.1-3.6l-8.2,20.5
		c6.2,4.1,13.2,7.4,20.8,9.8c8.5,2.6,17,3.9,25.7,3.9c5.6,0,11.1-0.6,16.3-1.9c5.2-1.2,9.8-3.2,13.7-5.9c3.9-2.7,7-6.3,9.4-10.7
		c2.3-4.4,3.5-9.7,3.5-15.9c0-5.3-0.9-9.8-2.6-13.4C150.7,65.9,148.3,62.8,145.1,60.2z"/>
	<path class="st2" d="M110,19.4c3.5,0,6.9,0.4,10.2,1.3c3.4,0.9,6.5,1.9,9.4,3.2c2.9,1.2,5.3,2.5,7.3,3.8c2,1.3,3.4,2.3,4.1,3.1
		l9.9-18.2c-5.1-3.5-11.1-6.5-17.9-9c-6.8-2.5-14.3-3.8-22.4-3.8c-1.1,0-2.3,0-3.4,0.1l-8.6,21.5C101.6,20,105.4,19.4,110,19.4z"/>
	<polygon class="st2" points="230.4,66.2 196.2,0.5 172.2,0.5 172.2,116 194.6,116 194.6,39.5 224.4,96.4 236.6,96.4 266.3,39.5 
		266.3,116 288.8,116 288.8,0.5 264.9,0.5 	"/>
	<path class="st3" d="M346.7,0.5L301.1,116h23.7l10.6-28.8h40.5l10.6,28.8h23.7L364.9,0.5H346.7z"/>
	<path class="st4" d="M504.8,59.3c3.7-6.1,5.6-12.9,5.6-20.4c0-4.7-0.9-9.3-2.8-13.9c-1.8-4.6-4.4-8.7-7.6-12.4
		c-3.3-3.6-7.1-6.6-11.6-8.8c-4.5-2.2-9.4-3.3-14.7-3.3h-51.1V116h22.4V77.2h22.1l24.2,38.7h25.4l-27.2-43.4
		C496,69.8,501.1,65.4,504.8,59.3z"/>
	<polygon class="st5" points="519.7,0.5 519.7,20.2 556.6,20.2 556.6,116 579.1,116 579.1,20.2 615.8,20.2 615.8,0.5 	"/>
</g>
</svg>
